# File created by Blade
# Date/Time:  Thu Jan 22 19:18:16 2015
# Frame Rate: 120.000 fps
#------------------------------------------------------
:FULLY-SPECIFIED
:DEGREES
1197
root -0.506174 31.709445 -7.565830 84.498190 22.917563 -8.898645
RightUpLeg -82.703989 -4.191806 4.795530
RightLeg -6.081463 -0.000000 0.000000
RightFoot -4.160353 -13.124077 17.641365
RightToeBase 7.131502 -0.000000 -0.000000
LeftUpLeg -96.481087 28.401357 23.920356
LeftLeg 3.969207 -0.000000 -0.000000
LeftFoot 4.233734 2.966827 -27.604881
LeftToeBase 8.374650 -0.000000 -0.000000
Spine 38.709001 9.083735 -20.518196
RightShoulder -0.107892 25.797128 -47.456165
RightArm 94.002115 17.346657 41.261797
RightForeArm -19.275604 -0.000000 24.437841
RightHand 11.702401 -0.000000 5.155745
RightHandThumb1 -24.326973 -0.000000 -32.862282
LeftShoulder -2.317524 -24.299312 25.982084
LeftArm 40.765823 -22.004583 -53.269132
LeftForeArm -24.350839 -0.000000 53.065820
LeftHand -6.429210 -0.000000 -15.570668
LeftHandThumb1 -26.253704 0.000000 33.147579
Head -46.666812 -9.740933 -18.088473
1198
root -0.505402 31.708259 -7.583853 84.387758 22.754195 -8.897168
RightUpLeg -82.712913 -4.208598 4.893601
RightLeg -5.997305 -0.000000 0.000000
RightFoot -4.056865 -12.911812 17.506908
RightToeBase 7.092243 -0.000000 -0.000000
LeftUpLeg -96.259368 28.366601 23.824536
LeftLeg 3.764375 -0.000000 -0.000000
LeftFoot 4.274251 2.973444 -27.629223
LeftToeBase 8.432185 -0.000000 -0.000000
Spine 38.579935 8.960259 -20.591683
RightShoulder -0.037940 25.795510 -47.406056
RightArm 94.010110 17.012089 41.508892
RightForeArm -19.277108 -0.000000 24.641198
RightHand 11.521815 -0.000000 5.158567
RightHandThumb1 -24.326973 -0.000000 -32.862282
LeftShoulder -2.347947 -24.319796 26.024485
LeftArm 40.631137 -21.915779 -53.398735
LeftForeArm -23.778545 -0.000000 52.629390
LeftHand -6.395570 0.000000 -15.436428
LeftHandThumb1 -26.253704 0.000000 33.147579
Head -46.934878 -10.040281 -17.605080
1199
root -0.510150 31.706642 -7.604358 84.215736 22.618753 -8.933869
RightUpLeg -82.673155 -4.185929 4.990336
RightLeg -5.910890 -0.000000 0.000000
RightFoot -3.970942 -12.746450 17.394122
RightToeBase 7.092724 -0.000000 -0.000000
LeftUpLeg -95.977572 28.349086 23.803657
LeftLeg 3.563511 -0.000000 -0.000000
LeftFoot 4.299777 3.029384 -27.650733
LeftToeBase 8.504850 -0.000000 -0.000000
Spine 38.477275 8.956607 -20.578194
RightShoulder 0.036731 25.746859 -47.270423
RightArm 93.945175 16.729196 41.653763
RightForeArm -19.082309 -0.000000 24.923420
RightHand 11.873503 0.000000 4.900255
RightHandThumb1 -24.326973 -0.000000 -32.862282
LeftShoulder -2.336108 -24.301240 26.013762
LeftArm 40.664276 -21.793724 -53.518212
LeftForeArm -23.197627 -0.000000 52.083889
LeftHand -6.261200 0.000000 -15.291972
LeftHandThumb1 -26.253704 0.000000 33.147579
Head -47.125995 -10.438486 -17.048090
1200
root -0.512140 31.706241 -7.624450 84.064099 22.470856 -8.939045
RightUpLeg -82.628113 -4.192018 5.079625
RightLeg -5.853695 -0.000000 0.000000
RightFoot -3.855487 -12.575364 17.253974
RightToeBase 7.086825 -0.000000 -0.000000
LeftUpLeg -95.717970 28.299469 23.736379
LeftLeg 3.350638 -0.000000 -0.000000
LeftFoot 4.350247 3.079795 -27.634393
LeftToeBase 8.610966 -0.000000 -0.000000
Spine 38.371020 8.885074 -20.556496
RightShoulder 0.091443 25.549859 -47.237818
RightArm 94.007379 16.473367 41.995643
RightForeArm -18.909441 -0.000000 25.175279
RightHand 12.028912 -0.000000 4.582389
RightHandThumb1 -24.326973 -0.000000 -32.862282
LeftShoulder -2.308604 -24.323400 26.000399
LeftArm 40.590339 -21.710079 -53.661905
LeftForeArm -22.583212 -0.000000 51.578061
LeftHand -6.262076 -0.000000 -15.187033
LeftHandThumb1 -26.253704 0.000000 33.147579
Head -47.316146 -10.857075 -16.591458
1201
root -0.512748 31.707503 -7.642691 83.932255 22.284770 -8.930353
RightUpLeg -82.610297 -4.209374 5.188631
RightLeg -5.799134 -0.000000 0.000000
RightFoot -3.684175 -12.363940 17.036159
RightToeBase 6.995816 -0.000000 -0.000000
LeftUpLeg -95.483104 28.243617 23.544792
LeftLeg 3.087902 -0.000000 -0.000000
LeftFoot 4.463928 3.047228 -27.614040
LeftToeBase 8.640806 -0.000000 -0.000000
Spine 38.246057 8.775263 -20.632604
RightShoulder 0.188877 25.630510 -47.132277
RightArm 93.888261 16.007837 42.388261
RightForeArm -18.738178 -0.000000 25.513728
RightHand 12.019776 0.000000 4.616182
RightHandThumb1 -24.326973 -0.000000 -32.862282
LeftShoulder -2.374960 -24.267594 26.018874
LeftArm 40.600593 -21.590651 -53.771426
LeftForeArm -21.962327 -0.000000 51.065627
LeftHand -6.242406 -0.000000 -14.914664
LeftHandThumb1 -26.253704 0.000000 33.147579
Head -47.585076 -11.150527 -16.081521
1202
root -0.510817 31.707930 -7.663897 83.768387 22.075244 -8.923980
RightUpLeg -82.617484 -4.246702 5.498499
RightLeg -5.670527 -0.000000 0.000000
RightFoot -3.530094 -11.949346 16.836854
RightToeBase 6.998881 -0.000000 -0.000000
LeftUpLeg -95.146788 28.195537 23.584647
LeftLeg 2.924388 -0.000000 -0.000000
LeftFoot 4.446369 3.152754 -27.694667
LeftToeBase 8.650323 -0.000000 -0.000000
Spine 38.141439 8.692694 -20.665104
RightShoulder 0.281888 25.569857 -47.038405
RightArm 93.815566 15.634300 42.664074
RightForeArm -18.445105 -0.000000 25.823153
RightHand 12.077059 -0.000000 4.416687
RightHandThumb1 -24.326973 -0.000000 -32.862282
LeftShoulder -2.345829 -24.298824 25.991160
LeftArm 40.491254 -21.484406 -53.856283
LeftForeArm -21.157411 -0.000000 50.573821
LeftHand -6.234680 -0.000000 -14.663016
LeftHandThumb1 -26.253704 0.000000 33.147579
Head -47.776755 -11.531788 -15.681357
1203
root -0.502109 31.713128 -7.686869 83.665355 21.812835 -8.839163
RightUpLeg -82.671590 -4.360257 5.756601
RightLeg -5.546864 -0.000000 0.000000
RightFoot -3.350638 -11.523299 16.625738
RightToeBase 6.826842 -0.000000 -0.000000
LeftUpLeg -94.995579 28.077969 23.017478
LeftLeg 2.492390 -0.000000 -0.000000
LeftFoot 4.852217 2.840651 -27.749302
LeftToeBase 8.706095 -0.000000 -0.000000
Spine 38.031493 8.550569 -20.768166
RightShoulder 0.373150 25.622270 -46.892806
RightArm 93.637732 15.160685 42.939142
RightForeArm -17.994952 -0.000000 26.192775
RightHand 12.379991 -0.000000 3.889605
RightHandThumb1 -24.326973 -0.000000 -32.862282
LeftShoulder -2.306721 -24.375275 25.976882
LeftArm 40.317326 -21.331948 -53.872388
LeftForeArm -20.431956 -0.000000 50.141188
LeftHand -6.263030 -0.000000 -14.235953
LeftHandThumb1 -26.253704 0.000000 33.147579
Head -47.993264 -11.808459 -15.284612
1204
root -0.498382 31.713229 -7.712788 83.483093 21.570371 -8.810958
RightUpLeg -82.642111 -4.412152 5.917923
RightLeg -5.456339 -0.000000 0.000000
RightFoot -3.179645 -11.206685 16.387283
RightToeBase 6.869167 -0.000000 -0.000000
LeftUpLeg -94.694884 27.989921 22.922866
LeftLeg 2.317786 -0.000000 -0.000000
LeftFoot 4.879918 2.881103 -27.745296
LeftToeBase 8.803183 -0.000000 -0.000000
Spine 37.937705 8.450540 -20.812920
RightShoulder 0.440768 25.554266 -46.795240
RightArm 93.581045 14.692532 43.401475
RightForeArm -18.223759 -0.000000 26.521694
RightHand 12.081965 -0.000000 3.990479
RightHandThumb1 -24.326973 -0.000000 -32.862282
LeftShoulder -2.260535 -24.445954 25.920809
LeftArm 40.117381 -21.172683 -53.826012
LeftForeArm -19.560785 -0.000000 49.707048
LeftHand -6.271201 -0.000000 -13.814658
LeftHandThumb1 -26.253704 0.000000 33.147579
Head -48.190910 -12.071727 -14.945810
1205
root -0.497322 31.713455 -7.737231 83.263666 21.378753 -8.796011
RightUpLeg -82.554482 -4.454287 6.135768
RightLeg -5.400845 -0.000000 0.000000
RightFoot -3.011245 -10.931379 16.180019
RightToeBase 6.578788 -0.000000 -0.000000
LeftUpLeg -94.343904 27.907818 23.045060
LeftLeg 2.258712 -0.000000 -0.000000
LeftFoot 4.819380 3.010415 -27.735608
LeftToeBase 8.798804 -0.000000 -0.000000
Spine 37.872029 8.302999 -20.813587
RightShoulder 0.562799 25.475438 -46.693687
RightArm 93.511567 14.280286 43.733638
RightForeArm -18.227593 -0.000000 26.847207
RightHand 12.013659 -0.000000 4.249745
RightHandThumb1 -24.326973 -0.000000 -32.862282
LeftShoulder -2.387983 -24.186403 25.913195
LeftArm 40.441729 -21.237805 -54.203146
LeftForeArm -18.358448 -0.000000 49.059333
LeftHand -6.339907 -0.000000 -13.727311
LeftHandThumb1 -26.253704 0.000000 33.147579
Head -48.392533 -12.349646 -14.617206
